<svg width="10" height="10" viewBox="0 0 10 10" fill="none" xmlns="http://www.w3.org/2000/svg">
<path fill-rule="evenodd" clip-rule="evenodd" d="M3.125 0H6.875C8.60063 0 10 1.39938 10 3.125V6.875C10 8.60063 8.60063 10 6.875 10H3.125C1.39938 10 0 8.60063 0 6.875V3.125C0 1.39938 1.39938 0 3.125 0ZM6.875 9.0625C8.08125 9.0625 9.0625 8.08125 9.0625 6.875V3.125C9.0625 1.91875 8.08125 0.9375 6.875 0.9375H3.125C1.91875 0.9375 0.9375 1.91875 0.9375 3.125V6.875C0.9375 8.08125 1.91875 9.0625 3.125 9.0625H6.875Z" fill="black"/>
<path fill-rule="evenodd" clip-rule="evenodd" d="M2.5 5C2.5 3.61937 3.61937 2.5 5 2.5C6.38063 2.5 7.5 3.61937 7.5 5C7.5 6.38063 6.38063 7.5 5 7.5C3.61937 7.5 2.5 6.38063 2.5 5ZM3.4375 5C3.4375 5.86125 4.13875 6.5625 5 6.5625C5.86125 6.5625 6.5625 5.86125 6.5625 5C6.5625 4.13813 5.86125 3.4375 5 3.4375C4.13875 3.4375 3.4375 4.13813 3.4375 5Z" fill="black"/>
<circle cx="7.6875" cy="2.31262" r="0.333125" fill="black"/>
</svg>
