<svg width="400" height="434" viewBox="0 0 400 434" fill="none" xmlns="http://www.w3.org/2000/svg">
<path d="M215.5 -120L218.19 191.162L268.609 -115.74L223.505 192.02L320.411 -103.066L228.622 193.714L369.63 -82.2883L233.416 196.204L415.053 -53.9199L237.769 199.427L455.563 -18.659L241.574 203.304L490.161 22.6263L244.737 207.741L517.997 68.9193L247.179 212.627L538.384 119.08L248.842 217.842L550.82 171.874L249.684 223.258L555 226L249.684 228.742L550.82 280.126L248.842 234.158L538.384 332.92L247.179 239.373L517.997 383.081L244.737 244.259L490.161 429.374L241.574 248.696L455.563 470.659L237.769 252.573L415.053 505.92L233.416 255.796L369.63 534.288L228.622 258.286L320.411 555.066L223.505 259.98L268.609 567.74L218.19 260.838L215.5 572L212.81 260.838L162.391 567.74L207.495 259.98L110.589 555.066L202.378 258.286L61.3702 534.288L197.584 255.796L15.9469 505.92L193.231 252.573L-24.5628 470.659L189.426 248.696L-59.1613 429.374L186.263 244.259L-86.9967 383.081L183.821 239.373L-107.384 332.92L182.158 234.158L-119.82 280.126L181.316 228.742L-124 226L181.316 223.258L-119.82 171.874L182.158 217.842L-107.384 119.08L183.821 212.627L-86.9967 68.9193L186.263 207.741L-59.1613 22.6263L189.426 203.304L-24.5628 -18.659L193.231 199.427L15.9469 -53.9199L197.584 196.204L61.3702 -82.2883L202.378 193.714L110.589 -103.066L207.495 192.02L162.391 -115.74L212.81 191.162L215.5 -120Z" fill="url(#paint0_radial_101_983)"/>
<defs>
<radialGradient id="paint0_radial_101_983" cx="0" cy="0" r="1" gradientUnits="userSpaceOnUse" gradientTransform="translate(215.5 226) rotate(90) scale(210.037 206.091)">
<stop stop-color="#3A795B"/>
<stop offset="1" stop-color="#3A795B" stop-opacity="0"/>
</radialGradient>
</defs>
</svg>
