<svg width="10" height="10" viewBox="0 0 10 10" fill="none" xmlns="http://www.w3.org/2000/svg">
<path d="M10 1.18385C9.62813 1.38462 9.23188 1.51769 8.81875 1.58231C9.24375 1.27 9.56812 0.779231 9.72062 0.187692C9.32437 0.478462 8.88688 0.683846 8.42063 0.798462C8.04438 0.305385 7.50813 0 6.92313 0C5.78813 0 4.87438 1.13385 4.87438 2.52385C4.87438 2.72385 4.88813 2.91615 4.92188 3.09923C3.2175 2.99692 1.70937 1.99154 0.69625 0.46C0.519375 0.837692 0.415625 1.27 0.415625 1.73538C0.415625 2.60923 0.78125 3.38385 1.32625 3.83231C0.996875 3.82462 0.67375 3.70692 0.4 3.52154C0.4 3.52923 0.4 3.53923 0.4 3.54923C0.4 4.77538 1.11063 5.79385 2.0425 6.02846C1.87563 6.08462 1.69375 6.11154 1.505 6.11154C1.37375 6.11154 1.24125 6.10231 1.11688 6.06846C1.3825 7.06769 2.13625 7.80231 3.0325 7.82615C2.335 8.49769 1.44938 8.90231 0.490625 8.90231C0.3225 8.90231 0.16125 8.89308 0 8.86769C0.908125 9.58846 1.98438 10 3.145 10C6.9175 10 8.98 6.15385 8.98 2.82C8.98 2.70846 8.97688 2.60077 8.9725 2.49385C9.37938 2.13846 9.72125 1.69462 10 1.18385Z" fill="black"/>
</svg>
